# xmcd
#
# Track frame offsets: 
#        150
#        14952
#        48850
#        61985
#        87932
#        104590
#        118027
#        147970
#        161232
#        171422
#        201725
#        221005
#        246570
#        277340
#        289930
#        327965
#
# Disc length: 4646 seconds
#
# Revision: 8
# Processed by: cddbd v1.5.2PL0 Copyright (c) Steve Scherf et al.
# Submitted via: ExactAudioCopy v1.0b3
#
DISCID=13122410
DTITLE=Erich Kunzel - Viennafest
DYEAR=2000
DGENRE=Classical
TTITLE0=Johann Strauss Sr.: Radetzky March, Op.228
TTITLE1=Johann Strauss, Jr.: Overture to The Gypsy Baron
TTITLE2=Johann Strauss, Jr.: Jager Polka (Huntsman Polka), Op.229
TTITLE3=Johann Strauss, Jr.: Fruhlingsstimmen Walzer (Voices of Spring
TTITLE3=Waltzes), Op.410
TTITLE4=Johann Strauss, Jr.: Nachtigall Polka (Nightingale Polka), Op.
TTITLE4=222
TTITLE5=Johann Strauss, Jr.: Studenten Polka (Students' Polka), Op.263
TTITLE6=Franz Lehar: Gold and Silver Waltzes
TTITLE7=Johann Strauss, Jr.: Im Sturmschritt, Polka schnell (At the Do
TTITLE7=uble, Fast Polka), Op.348
TTITLE8=Eduard Strauss: Mit Dampf, Polka Schnell (At Full Steam, Fast 
TTITLE8=Polka), Op.70
TTITLE9=Franz Lehar: Ballsirenen Walzer (Siren of the Dance Waltzes) f
TTITLE9=rom The Merry Widow
TTITLE10=Emmerich Kalman: Overture to Countess Mariza
TTITLE11=Josef Lanner: Hofball-Tanze Walzer (Court Ball Waltzes), Op.1
TTITLE11=61
TTITLE12=Oscar Straus: Walzertraume (Waltz Dreams)
TTITLE13=Robert Stolz: Zwei Herzen im Dreivierteltakt (Two Hearts in T
TTITLE13=hree-Quarter Time)
TTITLE14=Johann Strauss, Jr.: Overture to Die Fledermaus
TTITLE15=Rudolf Sieczynski: Wien, Wien, nur du allein (Vienna, City of
TTITLE15=My Dreams) (Tracy Dahi, soprano)
EXTD=
EXTT0=
EXTT1=
EXTT2=
EXTT3=
EXTT4=
EXTT5=
EXTT6=
EXTT7=
EXTT8=
EXTT9=
EXTT10=
EXTT11=
EXTT12=
EXTT13=
EXTT14=
EXTT15=
PLAYORDER=
